<svg xmlns="http://www.w3.org/2000/svg" xmlns:xlink="http://www.w3.org/1999/xlink">
  <symbol id="pluss" viewBox="0 0 24 24" aria-labeledby="title">
    <title>Add</title>
    <path d="M19 13h-6v6h-2v-6H5v-2h6V5h2v6h6v2z"/>
  </symbol>
  <symbol id="heart" viewBox="0 0 24 24" aria-labeledby="title">
    <title>Favourite</title>
    <path d="M12 21.35l-1.45-1.32C5.4 15.36 2 12.28 2 8.5 2 5.42 4.42 3 7.5 3c1.74 0 3.41.81 4.5 2.09C13.09 3.81 14.76 3 16.5 3 19.58 3 22 5.42 22 8.5c0 3.78-3.4 6.86-8.55 11.54L12 21.35z"/>
  </symbol>
  <symbol id="delete" viewBox="0 0 24 24" aria-labeledby="title">
    <title>Delete</title>
    <path d="M6 19c0 1.1.9 2 2 2h8c1.1 0 2-.9 2-2V7H6v12zM19 4h-3.5l-1-1h-5l-1 1H5v2h14V4z"/>
    <path d="M0 0h24v24H0z" fill="none"/>
  </symbol>
  <symbol id="edit" viewBox="0 0 24 24" aria-labeledby="title">
    <title>Edit</title>
    <path d="M3 17.25V21h3.75L17.81 9.94l-3.75-3.75L3 17.25zM20.71 7.04c.39-.39.39-1.02 0-1.41l-2.34-2.34c-.39-.39-1.02-.39-1.41 0l-1.83 1.83 3.75 3.75 1.83-1.83z"/>
    <path d="M0 0h24v24H0z" fill="none"/>
  </symbol>
  <symbol id="done" viewBox="0 0 24 24" aria-labeledby="title">
    <title>Done</title>
    <path d="M0 0h24v24H0z" fill="none"/>
    <path d="M9 16.2L4.8 12l-1.4 1.4L9 19 21 7l-1.4-1.4L9 16.2z"/>
  </symbol>
</svg>
